<?xml version="1.0" encoding="UTF-8"?><svg id="a" xmlns="http://www.w3.org/2000/svg" viewBox="0 0 177.57 46.13"><g><path d="m74.34,31.15h-7l-7.21-13.92h-.12c.17,2.19.26,3.86.26,5.01v8.9h-4.73V11.4h6.97l7.19,13.73h.08c-.13-1.99-.19-3.59-.19-4.8v-8.93h4.76v19.75Z" style="fill:#008964;"/><path d="m88.29,31.15l-1.01-2.03h-.11c-.71.88-1.44,1.49-2.18,1.81-.74.32-1.69.49-2.86.49-1.44,0-2.58-.43-3.4-1.3-.83-.86-1.24-2.08-1.24-3.65s.57-2.84,1.7-3.64,2.78-1.25,4.93-1.34l2.55-.08v-.22c0-1.26-.62-1.89-1.86-1.89-1.12,0-2.54.38-4.26,1.13l-1.53-3.49c1.78-.92,4.04-1.38,6.76-1.38,1.96,0,3.48.49,4.56,1.46,1.08.97,1.62,2.33,1.62,4.08v10.04h-3.66Zm-3.92-3.46c.64,0,1.19-.2,1.64-.61s.68-.93.68-1.58v-1.19l-1.22.05c-1.74.06-2.61.7-2.61,1.92,0,.94.5,1.41,1.5,1.41Z" style="fill:#008964;"/><path d="m103.04,27.25c.71,0,1.56-.17,2.55-.53v3.85c-.71.31-1.39.52-2.03.66-.64.13-1.4.2-2.26.2-1.78,0-3.05-.43-3.84-1.3-.78-.87-1.17-2.21-1.17-4.01v-6.31h-1.85v-2.15l2.35-1.66,1.36-3.22h3.46v3.07h3.76v3.96h-3.76v5.96c0,.99.48,1.49,1.43,1.49Z" style="fill:#008964;"/><path d="m119.18,31.15l-.66-1.91h-.31c-.44.7-1.06,1.24-1.84,1.62-.79.37-1.71.56-2.78.56-1.68,0-3-.49-3.93-1.47-.94-.98-1.41-2.36-1.41-4.14v-9.97h5.28v8.36c0,1,.14,1.76.43,2.27.28.51.75.77,1.4.77.91,0,1.56-.36,1.95-1.07.39-.72.58-1.92.58-3.63v-6.7h5.28v15.31h-3.99Z" style="fill:#008964;"/><path d="m136.05,15.57c.46,0,.9.04,1.31.11l.3.05-.47,4.99c-.43-.11-1.03-.16-1.8-.16-1.15,0-1.99.26-2.51.79s-.78,1.29-.78,2.28v7.53h-5.28v-15.31h3.93l.82,2.45h.26c.44-.81,1.06-1.47,1.84-1.97s1.58-.75,2.38-.75Z" style="fill:#008964;"/><path d="m149.78,31.15l-1.01-2.03h-.11c-.71.88-1.44,1.49-2.17,1.81-.74.32-1.69.49-2.86.49-1.44,0-2.58-.43-3.41-1.3-.83-.86-1.24-2.08-1.24-3.65s.57-2.84,1.7-3.64c1.14-.8,2.78-1.25,4.93-1.34l2.55-.08v-.22c0-1.26-.62-1.89-1.87-1.89-1.12,0-2.54.38-4.26,1.13l-1.53-3.49c1.78-.92,4.04-1.38,6.76-1.38,1.96,0,3.48.49,4.56,1.46,1.08.97,1.61,2.33,1.61,4.08v10.04h-3.66Zm-3.92-3.46c.64,0,1.19-.2,1.64-.61.46-.41.68-.93.68-1.58v-1.19l-1.22.05c-1.74.06-2.61.7-2.61,1.92,0,.94.5,1.41,1.5,1.41Z" style="fill:#008964;"/><path d="m162.32,31.15h-5.28V10.13h5.28v21.02Z" style="fill:#008964;"/><path d="m177.8,26.45c0,1.64-.56,2.88-1.68,3.72-1.12.84-2.72,1.26-4.81,1.26-1.13,0-2.12-.06-2.96-.18-.84-.12-1.69-.34-2.57-.67v-4.23c.82.36,1.72.66,2.7.89.98.23,1.85.35,2.61.35,1.14,0,1.72-.26,1.72-.78,0-.27-.16-.51-.48-.72-.32-.21-1.25-.62-2.79-1.24-1.41-.58-2.39-1.23-2.95-1.97-.56-.73-.84-1.66-.84-2.79,0-1.42.55-2.53,1.65-3.32,1.1-.79,2.65-1.19,4.66-1.19,1.01,0,1.96.11,2.84.33.89.22,1.81.54,2.76.97l-1.43,3.41c-.7-.32-1.45-.58-2.23-.8-.78-.22-1.42-.33-1.92-.33-.87,0-1.3.21-1.3.63,0,.26.15.48.45.67s1.17.56,2.61,1.13c1.07.44,1.87.87,2.4,1.3.53.42.91.92,1.16,1.49.25.57.37,1.27.37,2.09Z" style="fill:#008964;"/></g><g><path d="m33.29,4.33c-1.26-.12-2.65-.18-4.17-.18-1.34,0-3.39.07-6.17.2-2.78.13-4.87.2-6.28.2-1.77,0-3.39-.07-4.87-.22-.29-.21-.43-.44-.43-.71,0-.18.06-.41.19-.71.13-.29.19-.49.19-.58-1.12.53-2.24,1.34-3.36,2.43-.79,1.09-1.19,1.96-1.19,2.61,0,.41.11.78.32,1.11.07.5.47.88,1.19,1.15.54.21,1.08.41,1.62.62-.07.12-.79,1.14-2.17,3.05-.66.91-1.26,1.68-1.81,2.32-1.24,2.14-4.23,6.06-4.2,6.09-1.3,2.54-2.02,4.31-2.17,5.31-.07.53.09.99.49,1.37.79.68,1.39,1.08,1.79,1.19.14.27.29.53.43.8.22.41.52.77.92,1.06.4.3.9.49,1.52.58,1.48.18,2.98.27,4.49.27,2.56,0,6.44-.43,11.64-1.28.61-.18,1.06-.62,1.35-1.33.18-.56.36-1.14.54-1.73.07-.21.25-.43.54-.66.29-.24.43-.37.43-.4l-.05-.04c-1.08-.15-2.33-.22-3.73-.22-1.59,0-4.62.18-9.09.53-1.26.09-2.09.13-2.49.13-.16,0-.31-.01-.45-.02.07.16.14.31.22.47-.08-.16-.15-.31-.22-.47-1.05-.07-1.52-.3-1.39-.69.21-.75.51-1.51.91-2.26.42-3.31,8.35-12.2,9-13.18,0-.03-.04-.27-.11-.71-.04-.29.07-.44.33-.44.87-.03,2.51-.18,4.93-.44,2.06-.21,3.66-.28,4.82-.22,1.84-.35,3.03-.61,3.57-.77.54-.16.97-.58,1.3-1.26.25-.56.49-1.12.7-1.68.04-.18.21-.36.51-.55.31-.19.46-.36.46-.51,0-.06-.02-.13-.05-.22Z" style="fill:#babcbe;"/><path d="m47.5,16.82c-.51-.09-.94-.42-1.3-1-.36-.58-.78-.86-1.25-.86-2.09,3.1-3.68,5.43-4.76,6.99-3.5,4.54-5.88,7.52-7.15,8.94-2.81,3.27-5.65,5.96-8.5,8.05-.22.18-.49.24-.81.18-.33-.06-.47-.18-.43-.35.25-1.65.97-3.69,2.16-6.1,1.77-3.54,2.74-5.56,2.92-6.06.65-1.33,1.3-2.64,1.95-3.94.11-.23.21-.46.31-.69-2.16-.95-4.59-1.33-7.08-1.46-1.21,2.79-2.41,5.58-3.62,8.38-1.91,4.42-3.1,8.33-3.57,11.72,0,.56.61,1.17,1.84,1.81,1.37.71,2.2,1.37,2.49,1.99.18.44.67.66,1.46.66,1.08,0,2.22-.29,3.41-.88,4.62-2.27,8.9-5.46,12.83-9.56,3.57-3.74,6.51-7.84,8.82-12.3.04-.21.27-.81.7-1.81.29-.8.43-1.44.43-1.95,0-.71-.29-1.3-.87-1.77Z" style="fill:#babcbe;"/><path d="m12.84,17.4c1.45,1.56,3.76,1.78,5.82,1.91,2.54.16,5.09-.03,7.63.17,3.06.23,6.69,1.48,8.66,3.86-.39-2.02-1.16-3.91-2.91-5.25-2.51-1.93-6.08-1.88-9.08-1.57-3.36.35-7.4,1.76-10.58.32l.47.56Z" style="fill:#babcbe;"/></g><path d="m33.29,1.99c-1.26-.12-2.65-.18-4.17-.18-1.34,0-3.39.07-6.17.2-2.78.13-4.87.2-6.28.2-1.77,0-3.39-.07-4.87-.22-.29-.21-.43-.44-.43-.71,0-.18.06-.41.19-.71.13-.29.19-.49.19-.58-1.12.53-2.24,1.34-3.36,2.43-.79,1.09-1.19,1.96-1.19,2.61,0,.41.11.78.32,1.11.07.5.47.88,1.19,1.15.54.21,1.08.41,1.62.62-.07.12-.79,1.14-2.17,3.05-.66.91-1.26,1.68-1.81,2.32-1.24,2.14-4.23,6.06-4.2,6.09C.86,21.91.14,23.68,0,24.68c-.07.53.09.99.49,1.37.79.68,1.39,1.08,1.79,1.19.14.27.29.53.43.8.22.41.52.77.92,1.06.4.3.9.49,1.52.58,1.48.18,2.98.27,4.49.27,2.56,0,6.44-.43,11.64-1.28.61-.18,1.06-.62,1.35-1.33.18-.56.36-1.14.54-1.73.07-.21.25-.43.54-.66.29-.24.43-.37.43-.4l-.05-.04c-1.08-.15-2.33-.22-3.74-.22-1.59,0-4.62.18-9.09.53-1.26.09-2.09.13-2.49.13-.16,0-.31-.01-.45-.02.07.16.14.31.22.47-.08-.16-.15-.31-.22-.47-1.05-.07-1.52-.3-1.39-.69.21-.75.51-1.51.91-2.26.42-3.31,8.35-12.2,9-13.18,0-.03-.04-.27-.11-.71-.04-.29.07-.44.32-.44.87-.03,2.51-.18,4.93-.44,2.06-.21,3.66-.28,4.82-.22,1.84-.35,3.03-.61,3.57-.77.54-.16.97-.58,1.3-1.26.25-.56.49-1.12.7-1.68.04-.18.21-.36.51-.55.31-.19.46-.36.46-.51,0-.06-.02-.13-.05-.22Z" style="fill:#0b0b0b;"/><path d="m47.49,14.49c-.51-.09-.94-.42-1.3-1-.36-.58-.78-.86-1.24-.86-2.09,3.1-3.68,5.43-4.76,6.99-3.5,4.54-5.88,7.52-7.15,8.94-2.81,3.27-5.65,5.96-8.5,8.05-.22.18-.49.24-.81.18-.32-.06-.47-.18-.43-.35.25-1.65.97-3.69,2.16-6.1,1.77-3.54,2.74-5.56,2.92-6.06.65-1.33,1.3-2.64,1.95-3.94.11-.23.21-.46.31-.69-2.16-.95-4.59-1.33-7.08-1.46-1.21,2.79-2.41,5.58-3.62,8.38-1.91,4.42-3.1,8.33-3.57,11.72,0,.56.61,1.17,1.84,1.81,1.37.71,2.2,1.37,2.49,1.99.18.44.67.66,1.46.66,1.08,0,2.22-.29,3.41-.88,4.62-2.27,8.9-5.46,12.83-9.56,3.57-3.74,6.51-7.84,8.82-12.3.04-.21.27-.81.7-1.81.29-.8.43-1.44.43-1.95,0-.71-.29-1.3-.87-1.77Z" style="fill:#0b0b0b;"/><path d="m12.84,15.07c1.45,1.56,3.76,1.78,5.82,1.91,2.54.16,5.09-.03,7.63.17,3.06.23,6.69,1.48,8.66,3.86-.39-2.02-1.16-3.91-2.91-5.25-2.51-1.93-6.08-1.88-9.08-1.57-3.36.35-7.4,1.76-10.58.32l.47.56Z" style="fill:#008964;"/></svg>